# xmcd
#
# Track frame offsets:
#	150
#	8503
#	17493
#	34015
#	48143
#	67790
#	88682
#	103275
#	122854
#	140312
#	158924
#	183767
#
# Disc length: 4440 seconds
#
# Revision: 1
# Processed by: cddbd v1.5.2PL0 Copyright (c) Steve Scherf et al.
# Submitted via: audiograbber 1.83.01
#
DISCID=8911560c
DTITLE=The Haunted - One Kill Wonder
DYEAR=1900
DGENRE=death metal
TTITLE0=Privation of Faith Inc.
TTITLE1=Godpuppet
TTITLE2=Shadow World
TTITLE3=Everlasting
TTITLE4=D.O.A.
TTITLE5=Demon Eyes
TTITLE6=Urban Predator
TTITLE7=Downward Spiral
TTITLE8=Shithead
TTITLE9=Bloodletting
TTITLE10=One Kill Wonder
TTITLE11=Data Track
EXTD=
EXTT0=
EXTT1=
EXTT2=
EXTT3=
EXTT4=
EXTT5=
EXTT6=
EXTT7=
EXTT8=
EXTT9=
EXTT10=
EXTT11=
PLAYORDER=
